<svg aria-hidden="true" style="width:0;height:0;position:absolute;overflow:hidden" xmlns="http://www.w3.org/2000/svg"><defs><symbol id="icon-close" viewBox="0 0 32 32"><path stroke-width="2" d="m2.52 2 26.96 28M2 29.48 30 2.52"/></symbol><symbol id="icon-person" viewBox="0 0 32 32"><path d="M16 16c2.947 0 5.333-2.387 5.333-5.333S18.946 5.334 16 5.334c-2.947 0-5.333 2.387-5.333 5.333S13.054 16 16 16zm0 2.667c-3.56 0-10.667 1.787-10.667 5.333v1.333c0 .733.6 1.333 1.333 1.333h18.667c.733 0 1.333-.6 1.333-1.333V24c0-3.547-7.107-5.333-10.667-5.333z"/></symbol><symbol id="icon-phone" viewBox="0 0 32 32"><path d="m24.882 19.773-3.268-.373a2.561 2.561 0 0 0-2.11.733L17.137 22.5a19.357 19.357 0 0 1-8.478-8.478l2.38-2.38a2.561 2.561 0 0 0 .733-2.11l-.373-3.242a2.575 2.575 0 0 0-2.56-2.277H6.613c-1.454 0-2.663 1.209-2.573 2.663.682 10.987 9.469 19.761 20.443 20.443 1.454.09 2.663-1.119 2.663-2.573V22.32a2.549 2.549 0 0 0-2.264-2.547z"/></symbol><symbol id="icon-email" viewBox="0 0 32 32"><path d="M26.667 5.333H5.334A2.663 2.663 0 0 0 2.681 8l-.013 16c0 1.467 1.2 2.667 2.667 2.667h21.333c1.467 0 2.667-1.2 2.667-2.667V8c0-1.467-1.2-2.667-2.667-2.667zM26.133 11l-9.427 5.893a1.346 1.346 0 0 1-1.413 0L5.866 11a1.132 1.132 0 1 1 1.2-1.92l8.933 5.587 8.933-5.587a1.132 1.132 0 1 1 1.2 1.92z"/></symbol><symbol id="icon-check" viewBox="0 0 42 32"><path d="m6.263 15.205-.22-.21-3.307 3.132 11.651 11.114L38.864 5.89l-3.285-3.134-21.192 20.197-8.124-7.75z"/></symbol><symbol id="icon-city" viewBox="0 0 32 32"><path d="M27.923 23.791V13.632h-4.52v10.159h-3.011V4.827h-7.537v18.964h-2.009V11.598h-6.53v12.19H.001v3.388h32.003v-3.388l-4.08.003zM17.23 6.526h2.382v1.648H17.23V6.526zm0 2.597h2.382v1.646H17.23V9.123zm-3.595-2.597h2.379v1.648h-2.379V6.526zm0 2.597h2.379v1.646h-2.379V9.123zm-5.207 3.882h1.459v1.946H8.428v-1.946zm-3.153 0h1.459v1.946H5.275v-1.946z"/></symbol><symbol id="icon-location" viewBox="0 0 32 32"><path d="m29.41 19.73-7.46-4.84c.98-1.6 1.49-3.43 1.5-5.45.01-4.09-3.31-7.43-7.4-7.43-4.1-.01-7.43 3.3-7.45 7.4-.01 2.02.49 3.85 1.47 5.46l-7.48 4.8c-.31.2-.5.55-.5.93-.01.38.18.72.5.93l12.78 8.3c.18.12.39.18.6.18s.42-.06.6-.18l12.83-8.24c.32-.2.51-.55.51-.93s-.18-.73-.5-.93zM19.36 9.39a3.342 3.342 0 0 1-3.34 3.32c-1.83 0-3.32-1.5-3.32-3.33a3.33 3.33 0 0 1 6.66.005v.005zm-3.38 18.19L5.23 20.59l6.17-3.96.46.46c.06.06.12.11.18.17.07.07.14.13.21.19l.18.15.21.18c.06.04.12.09.17.13l.22.16c.05.04.1.07.16.12.07.05.15.1.23.15.04.03.09.06.13.09.12.07.24.15.35.21.04.03.1.06.14.09.07.04.13.07.19.1.05.03.1.06.15.08l.15.09c.05.02.1.04.14.07.05.02.1.04.14.07.04.02.09.04.13.06l.12.06c.04.01.08.03.11.05a.302.302 0 0 1 .101.041l-.001-.001c.04.01.07.03.1.04s.05.01.07.03c.03.01.05.01.07.02l.06.03c.01 0 .02.01.04.01.02.01.04.01.04.02a1.094 1.094 0 0 0 .718-.002l-.008.002c.01 0 .02-.01.04-.01.01-.01.02-.01.04-.01.02-.01.04-.01.06-.02s.04-.02.07-.03c.02-.01.04-.01.07-.03.03-.01.06-.02.09-.04.03-.01.07-.03.1-.04s.07-.03.1-.04c.04-.02.08-.04.13-.06.04-.02.08-.04.13-.06.04-.02.09-.04.13-.07.05-.02.1-.05.15-.07.04-.02.1-.05.15-.08s.1-.05.16-.08c.05-.03.1-.07.16-.1s.11-.07.17-.1c.07-.05.15-.1.24-.15.1-.06.19-.13.29-.19.06-.04.12-.07.18-.11.07-.05.13-.1.2-.15.06-.04.12-.08.18-.13.07-.05.13-.11.21-.16l.18-.15c.07-.05.14-.11.21-.17.06-.05.13-.11.18-.16.07-.06.13-.13.21-.19l.38-.38c.01-.02.04-.04.06-.07l6.16 4-10.81 6.93z"/></symbol></defs></svg>