<svg aria-hidden="true" style="position: absolute; width: 0; height: 0; overflow: hidden;" version="1.1"
  xmlns="http://www.w3.org/2000/svg" xmlns:xlink="http://www.w3.org/1999/xlink">
  <defs>
    <symbol id="icon-close" viewBox="0 0 32 32">
      <path
        d="M32 3.223l-3.223-3.223-12.777 12.777-12.777-12.777-3.223 3.223 12.777 12.777-12.777 12.777 3.223 3.223 12.777-12.777 12.777 12.777 3.223-3.223-12.777-12.777 12.777-12.777z">
      </path>
      <symbol id="icon-bracket" viewBox="0 0 32 32">
        <path d="M6.139 28.005l12.267-12.005-12.267-12.267 3.733-3.733 16 16-16 16z"></path>
      </symbol>
  </defs>
</svg>

<svg aria-hidden="true" xmlns="http://www.w3.org/2000/svg">
  <defs>

    <!-- Arrows -->

    <symbol id="arrow-right" viewBox="0 0 32 32">
      <path
        d="M8 16c0-0.552 0.448-1 1-1v0h11.586l-4.294-4.292c-0.181-0.181-0.293-0.431-0.293-0.708 0-0.553 0.448-1.001 1.001-1.001 0.276 0 0.527 0.112 0.708 0.293v0l6 6c0.181 0.181 0.294 0.431 0.294 0.708s-0.112 0.527-0.294 0.708l-6 6c-0.181 0.181-0.431 0.293-0.708 0.293-0.553 0-1.001-0.448-1.001-1.001 0-0.276 0.112-0.527 0.293-0.708v0l4.294-4.292h-11.586c-0.552 0-1-0.448-1-1v0z">
      </path>
    </symbol>

    <symbol id="vector" viewBox="0 0 32 32">
      <path stroke-linejoin="round" stroke-linecap="round" stroke-miterlimit="4" stroke-width="2.6667"
        d="M12 24l8-8-8-8"></path>
    </symbol>

    <symbol id="little-arrow-right" viewBox="0 0 22 32">
      <path stroke-linejoin="round" stroke-linecap="round" stroke-miterlimit="4" stroke-width="6.4"
        d="M5.575 3.2l12.88 12.8-12.88 12.8"></path>
    </symbol>

    <!-- Menu Window -->

    <symbol id="burger" viewBox="0 0 32 32">
      <path stroke-linejoin="miter" stroke-linecap="butt" stroke-miterlimit="4" stroke-width="1.6" d="M0 6.4h32"></path>
      <path stroke-linejoin="miter" stroke-linecap="butt" stroke-miterlimit="4" stroke-width="1.6" d="M0 16h32"></path>
      <path stroke-linejoin="miter" stroke-linecap="butt" stroke-miterlimit="4" stroke-width="1.6" d="M0 25.6h32">
      </path>
    </symbol>

    <symbol id="close" viewBox="0 0 32 32">
      <path stroke-linejoin="miter" stroke-linecap="butt" stroke-miterlimit="4" stroke-width="2" d="M2.518 2l26.963 28">
      </path>
      <path stroke-linejoin="miter" stroke-linecap="butt" stroke-miterlimit="4" stroke-width="2"
        d="M2 29.481l28-26.963"></path>
    </symbol>

    <!-- Socials Icons -->

    <symbol id="facebook" viewBox="0 0 16 32">
      <path
        d="M14.266 15.97h-4.176v15.39h-6.327v-15.39h-3.009v-5.409h3.009v-3.5c0-2.503 1.182-6.422 6.384-6.422l4.687 0.020v5.25h-3.401c-0.558 0-1.342 0.28-1.342 1.474v3.183h4.729l-0.553 5.403z">
      </path>
    </symbol>

    <symbol id="git" viewBox="0 0 32 32">
      <path
        d="M16 0.941c-8.271 0-15.059 6.788-15.059 15.059 0 7.058 4.953 13.47 11.529 15.059v-4.982c-0.652 0.143-1.251 0.147-1.915-0.049-0.89-0.263-1.613-0.855-2.15-1.759-0.342-0.577-0.949-1.203-1.581-1.157l-0.155-1.758c1.368-0.117 2.551 0.833 3.254 2.014 0.312 0.525 0.671 0.832 1.132 0.968 0.446 0.131 0.924 0.068 1.481-0.129 0.14-1.116 0.651-1.534 1.037-2.122v-0.001c-3.922-0.585-5.486-2.666-6.106-4.308-0.822-2.181-0.381-4.905 1.073-6.627 0.028-0.034 0.079-0.121 0.059-0.183-0.667-2.014 0.146-3.679 0.176-3.856 0.769 0.228 0.894-0.229 3.342 1.258l0.423 0.254c0.177 0.105 0.121 0.045 0.298 0.032 1.022-0.278 2.099-0.431 3.16-0.445 1.069 0.014 2.14 0.167 3.204 0.456l0.137 0.014c-0.012-0.002 0.037-0.009 0.12-0.058 3.057-1.852 2.947-1.247 3.767-1.513 0.030 0.177 0.831 1.87 0.172 3.858-0.089 0.274 2.65 2.782 1.132 6.809-0.62 1.643-2.183 3.724-6.106 4.309v0.001c0.503 0.766 1.107 1.174 1.104 2.755v6.219c6.577-1.589 11.529-8.001 11.529-15.059 0-8.271-6.787-15.059-15.059-15.059v0z">
      </path>
    </symbol>

    <symbol id="telegram" viewBox="0 0 32 32">
      <path
        d="M12.964 19.8l-0.508 6.671c0.727 0 1.042-0.292 1.42-0.641l3.409-3.040 7.063 4.828c1.295 0.674 2.208 0.319 2.557-1.112l4.638-20.277c0.411-1.787-0.692-2.486-1.955-2.048l-27.252 9.738c-1.86 0.674-1.832 1.641-0.316 2.080l6.967 2.023 16.183-9.451c0.762-0.471 1.454-0.21 0.884 0.26l-13.091 10.971z">
      </path>
    </symbol>

    <!-- Slider buttons -->

    <symbol id="house" viewBox="0 0 38 32">
      <path
        d="M37.92 15.328c0.694-0.643 0.627-1.635-0.15-2.211l-17.162-12.691c-0.385-0.266-0.863-0.425-1.377-0.425-0.53 0-1.021 0.169-1.421 0.455l0.007-0.005-17.219 13.344c-0.765 0.589-0.8 1.581-0.083 2.208l0.432 0.384c0.714 0.627 1.872 0.704 2.582 0.163l1.286-0.973v14.262c0 0.874 0.842 1.581 1.875 1.581h6.71c1.037 0 1.875-0.704 1.875-1.581v-9.978h8.56v9.978c-0.013 0.874 0.726 1.581 1.76 1.581h7.114c1.034 0 1.872-0.707 1.872-1.584v-14.058l0.797 0.589c0.435 0.323 1.357 0.064 2.051-0.582l0.49-0.454z">
      </path>
    </symbol>

    <symbol id="button-circle" viewBox="0 0 35 32">
      <path fill="#d9d9d9" style="fill: var(--color1, #d9d9d9)"
        d="M33.053 16c0 8.837-7.163 16-16 16s-16-7.163-16-16c0-8.837 7.163-16 16-16s16 7.163 16 16z"></path>
    </symbol>

  </defs>
</svg>